Coordinates
version=1
nRows=21
nColumns=12
inDegrees=yes

Units are S.I. units (second, meters, Newtons, ...)
Angles are in degrees

endheader
time	SC_y	SC_z	SC_x	AC_y	AC_z	AC_x	GH_y	GH_z	GH_yy	EL_x	PS_y
       0.0              -57.32          25.57          63.16          35.48         -19.53         -16.03          108.1         -19.14         -94.87          82.02          148.1
 0.0009725              -57.32          25.57          63.16          35.49         -19.52         -16.03          108.1         -19.13         -94.85          82.02          148.1
  0.001945              -57.31          25.57          63.16          35.49         -19.52         -16.02          108.1         -19.11         -94.83          82.02          148.1
  0.002918              -57.31          25.56          63.16           35.5         -19.52         -16.02          108.1         -19.09         -94.81          82.02          148.0
   0.00389               -57.3          25.56          63.16           35.5         -19.51         -16.01          108.1         -19.07         -94.78          82.02          148.0
  0.004863              -57.29          25.55          63.16          35.51         -19.51         -16.01          108.1         -19.06         -94.75          82.02          148.0
  0.005835              -57.28          25.55          63.16          35.51         -19.51          -16.0          108.1         -19.04         -94.72          82.02          148.0
  0.006808              -57.27          25.54          63.16          35.52          -19.5          -16.0          108.1         -19.01         -94.69          82.02          148.0
   0.00778              -57.27          25.54          63.16          35.53          -19.5         -15.99          108.1         -18.99         -94.66          82.02          148.0
  0.008753              -57.26          25.53          63.16          35.53         -19.49         -15.99          108.1         -18.96         -94.63          82.02          148.0
  0.009725              -57.25          25.53          63.16          35.54         -19.49         -15.98          108.1         -18.94         -94.59          82.02          148.0
    0.0107              -57.23          25.52          63.16          35.55         -19.48         -15.97          108.1         -18.91         -94.55          82.02          148.0
   0.01167              -57.22          25.51          63.16          35.56         -19.48         -15.96          108.1         -18.88          -94.5          82.02          147.9
   0.01264              -57.21           25.5          63.16          35.57         -19.47         -15.95          108.1         -18.84         -94.46          82.02          147.9
   0.01362               -57.2           25.5          63.16          35.58         -19.46         -15.95          108.1         -18.81          -94.4          82.02          147.9
   0.01459              -57.18          25.49          63.16          35.59         -19.46         -15.94          108.1         -18.77         -94.35          82.02          147.9
   0.01556              -57.16          25.48          63.16           35.6         -19.45         -15.92          108.1         -18.72         -94.29          82.02          147.9
   0.01653              -57.15          25.46          63.16          35.61         -19.44         -15.91          108.1         -18.68         -94.22          82.02          147.9
   0.01751              -57.13          25.45          63.16          35.63         -19.43          -15.9          108.1         -18.63         -94.15          82.02          147.8
   0.01848               -57.1          25.44          63.16          35.64         -19.42         -15.88          108.1         -18.57         -94.07          82.02          147.8
   0.01945              -57.08          25.42          63.17          35.66         -19.41         -15.87          108.1         -18.51         -93.99          82.02          147.8
